<svg width="438" height="363" viewBox="0 0 438 363" fill="none" xmlns="http://www.w3.org/2000/svg">
<path d="M0 49.9999C0 22.3857 22.3858 0 50 0H387.98C415.594 0 437.98 22.3858 437.98 50V329.309C439.022 348.651 400.007 378.637 365.848 350.993C333.155 315.351 288.527 346.344 246.493 315.351C210.687 281.259 129.308 290.5 101.711 315.351C75.0822 348.5 39.9735 371.041 0 330.073V49.9999Z" fill="#FBC898"/>
<path d="M0 50.0405C0 22.4262 22.3858 0.0405273 50 0.0405273H387.98C415.594 0.0405273 437.98 22.4263 437.98 50.0405V324.847C411.395 343.254 394.818 346.047 360.659 321.391C339.956 300.541 289.703 306.571 246.493 281.309C196.311 261.363 123.573 282.541 106.381 301.35C89.1898 320.159 43.2765 354.147 0 322.406V50.0405Z" fill="#C1BFF8" fill-opacity="0.8"/>
</svg>
