<svg width="32" height="32" viewBox="0 0 32 32" fill="none" xmlns="http://www.w3.org/2000/svg">
<path d="M25.0002 1V12.9997M31 6.99984H19.0003M1.75079 6.99984C1.75079 4.6899 1.75079 3.53493 2.27128 2.68595C2.56227 2.21047 2.96126 1.81148 3.43675 1.52049C4.28423 1 5.44069 1 7.75063 1C10.0606 1 11.2155 1 12.0645 1.52049C12.54 1.81148 12.939 2.21047 13.23 2.68595C13.7505 3.53343 13.7505 4.6899 13.7505 6.99984C13.7505 9.30977 13.7505 10.4647 13.23 11.3137C12.939 11.7892 12.54 12.1882 12.0645 12.4792C11.217 12.9997 10.0606 12.9997 7.75063 12.9997C5.44069 12.9997 4.28573 12.9997 3.43675 12.4792C2.96161 12.1883 2.56221 11.7889 2.27128 11.3137C1.75079 10.4662 1.75079 9.30977 1.75079 6.99984ZM3.67374 20.1725C5.2442 18.602 6.02868 17.8175 6.95865 17.5925C7.47923 17.4675 8.02203 17.4675 8.54261 17.5925C9.47258 17.8175 10.2571 18.602 11.8275 20.1725C13.398 21.7429 14.1825 22.5274 14.4075 23.4574C14.5303 23.9782 14.5303 24.5205 14.4075 25.0413C14.1825 25.9713 13.398 26.7573 11.8275 28.3263C10.2571 29.8952 9.47258 30.6812 8.54261 30.9062C8.02203 31.0313 7.47923 31.0313 6.95865 30.9062C6.02868 30.6812 5.2442 29.8967 3.67374 28.3263C2.10328 26.7558 1.31881 25.9713 1.09381 25.0413C0.968729 24.5208 0.968729 23.978 1.09381 23.4574C1.31881 22.5274 2.10328 21.7414 3.67374 20.1725ZM19.0003 24.9993C19.0003 22.6894 19.0003 21.5344 19.5208 20.6855C19.8118 20.21 20.2108 19.811 20.6863 19.52C21.5338 18.9995 22.6902 18.9995 25.0002 18.9995C27.3101 18.9995 28.4651 18.9995 29.3155 19.52C29.7895 19.811 30.1885 20.21 30.4795 20.6855C31 21.5329 31 22.6894 31 24.9993C31 27.3093 31 28.4643 30.4795 29.3147C30.1884 29.7888 29.7896 30.1876 29.3155 30.4787C28.4651 30.9992 27.3101 30.9992 25.0002 30.9992C22.6902 30.9992 21.5353 30.9992 20.6863 30.4787C20.2113 30.1882 19.8119 29.7893 19.5208 29.3147C19.0003 28.4643 19.0003 27.3093 19.0003 24.9993Z" stroke="#130E2D" stroke-width="2" stroke-linecap="round" stroke-linejoin="round"/>
</svg>
