<svg width="30" height="30" viewBox="0 0 30 30" fill="none" xmlns="http://www.w3.org/2000/svg">
<path d="M2.14286 28.05H10.0543V18.1501C10.0543 17.7043 10.2207 17.3305 10.5536 17.0289C10.885 16.726 11.2957 16.5746 11.7857 16.5746H18.2143C18.7043 16.5746 19.1157 16.726 19.4486 17.0289C19.78 17.3305 19.9457 17.7043 19.9457 18.1501V28.05H27.8571V11.1011C27.8571 10.9009 27.8093 10.7189 27.7136 10.5551C27.6179 10.3913 27.4871 10.2483 27.3214 10.1261L15.7843 2.2132C15.5643 2.039 15.3029 1.9519 15 1.9519C14.6971 1.9519 14.4364 2.039 14.2179 2.2132L2.67857 10.1261C2.51429 10.2509 2.38357 10.3939 2.28643 10.5551C2.18929 10.7163 2.14143 10.8983 2.14286 11.1011V28.05ZM0 28.05V11.1011C0 10.6019 0.122857 10.1293 0.368571 9.68346C0.614286 9.23757 0.952857 8.87033 1.38429 8.58174L12.9236 0.629835C13.5279 0.209946 14.2179 0 14.9936 0C15.7693 0 16.4636 0.209946 17.0764 0.629835L28.6157 8.57979C29.0486 8.86838 29.3871 9.23627 29.6314 9.68346C29.8771 10.1293 30 10.6019 30 11.1011V28.05C30 28.5726 29.7864 29.0283 29.3593 29.417C28.9321 29.8057 28.4314 30 27.8571 30H19.5343C19.0429 30 18.6314 29.8492 18.3 29.5476C17.9686 29.2447 17.8029 28.8703 17.8029 28.4244V18.5265H12.1971V28.4244C12.1971 28.8716 12.0314 29.246 11.7 29.5476C11.3686 29.8492 10.9579 30 10.4679 30H2.14286C1.56857 30 1.06786 29.8057 0.640714 29.417C0.213571 29.0283 0 28.5726 0 28.05Z" fill="#130E2D"/>
</svg>
