<svg width="31" height="28" viewBox="0 0 31 28" fill="none" xmlns="http://www.w3.org/2000/svg">
<path d="M15.396 0C7.52231 0 8.01393 3.11064 8.01393 3.11064L8.02268 6.33335H15.5364V7.3009H5.03835C5.03835 7.3009 0 6.78034 0 14.0178C0 21.2556 4.3976 20.9989 4.3976 20.9989H7.02207V17.6403C7.02207 17.6403 6.88059 13.634 11.3495 13.634H18.8017C18.8017 13.634 22.9886 13.6957 22.9886 9.94762V3.75047C22.9886 3.75047 23.6245 0 15.396 0ZM11.2529 2.16721C11.4305 2.16707 11.6063 2.19882 11.7704 2.26065C11.9345 2.32248 12.0835 2.41318 12.2091 2.52756C12.3346 2.64194 12.4342 2.77775 12.5021 2.92722C12.5699 3.07668 12.6048 3.23688 12.6046 3.39863C12.6048 3.56039 12.5699 3.72058 12.5021 3.87005C12.4342 4.01952 12.3346 4.15533 12.2091 4.2697C12.0835 4.38408 11.9345 4.47478 11.7704 4.53661C11.6063 4.59845 11.4305 4.6302 11.2529 4.63005C11.0754 4.6302 10.8995 4.59845 10.7355 4.53661C10.5714 4.47478 10.4223 4.38408 10.2968 4.2697C10.1712 4.15533 10.0717 4.01952 10.0038 3.87005C9.93591 3.72058 9.90106 3.56039 9.90122 3.39863C9.90106 3.23688 9.93591 3.07668 10.0038 2.92722C10.0717 2.77775 10.1712 2.64194 10.2968 2.52756C10.4223 2.41318 10.5714 2.32248 10.7355 2.26065C10.8995 2.19882 11.0754 2.16707 11.2529 2.16721Z" fill="url(#paint0_linear_27_761)"/>
<path d="M15.6041 28C23.4778 28 22.9862 24.8894 22.9862 24.8894L22.9774 21.6668H15.4636V20.6992H25.9616C25.9616 20.6992 31 21.2198 31 13.9821C31 6.74444 26.6024 7.00113 26.6024 7.00113H23.9779V10.3596C23.9779 10.3596 24.1194 14.3659 19.6505 14.3659H12.1983C12.1983 14.3659 8.01139 14.3042 8.01139 18.0524V24.2496C8.01139 24.2496 7.37561 28 15.604 28M19.7471 25.833C19.5695 25.8332 19.3937 25.8014 19.2296 25.7396C19.0655 25.6777 18.9165 25.587 18.7909 25.4727C18.6654 25.3583 18.5658 25.2225 18.4979 25.073C18.4301 24.9235 18.3952 24.7633 18.3954 24.6016C18.3952 24.4398 18.43 24.2796 18.4979 24.1301C18.5658 23.9807 18.6653 23.8448 18.7909 23.7304C18.9164 23.6161 19.0655 23.5253 19.2296 23.4635C19.3937 23.4017 19.5695 23.3699 19.7471 23.3701C19.9246 23.3699 20.1005 23.4017 20.2645 23.4635C20.4286 23.5253 20.5777 23.616 20.7032 23.7304C20.8288 23.8448 20.9283 23.9806 20.9962 24.1301C21.0641 24.2795 21.0989 24.4397 21.0988 24.6015C21.0989 24.7632 21.0641 24.9234 20.9962 25.0729C20.9283 25.2224 20.8288 25.3582 20.7032 25.4725C20.5777 25.5869 20.4286 25.6776 20.2645 25.7395C20.1005 25.8013 19.9246 25.8332 19.7471 25.833Z" fill="url(#paint1_linear_27_761)"/>
<defs>
<linearGradient id="paint0_linear_27_761" x1="298.057" y1="252.819" x2="1693.55" y2="1769.34" gradientUnits="userSpaceOnUse">
<stop stop-color="#387EB8"/>
<stop offset="1" stop-color="#366994"/>
</linearGradient>
<linearGradient id="paint1_linear_27_761" x1="447.944" y1="439.159" x2="1953" y2="2000.92" gradientUnits="userSpaceOnUse">
<stop stop-color="#FFE052"/>
<stop offset="1" stop-color="#FFC331"/>
</linearGradient>
</defs>
</svg>
