<svg width="30" height="30" viewBox="0 0 30 30" fill="none" xmlns="http://www.w3.org/2000/svg">
<path d="M28.0349 19.7368L25.1024 17.6842C25.5858 15.9789 25.618 14.1316 25.1024 12.2842L28.0349 10.2632L25.6986 6.31579L22.4278 7.76842C21.1549 6.50526 19.5437 5.52632 17.6585 5.06842L17.3363 1.57895H12.6637L12.3415 5.06842C10.4563 5.52632 8.8451 6.50526 7.57222 7.76842L4.30142 6.31579L1.96514 10.2632L4.89758 12.2842C4.38198 14.1316 4.41421 15.9789 4.89758 17.6842L1.96514 19.7368L4.30142 23.6842L7.57222 22.2158C8.8451 23.4632 10.4563 24.4105 12.3415 24.9L12.6637 28.4211H17.3363L17.6585 24.9C19.5437 24.4105 21.1549 23.4632 22.4278 22.2158L25.6986 23.6842L28.0349 19.7368ZM18.2225 0C18.6575 0 19.0281 0.31579 19.0281 0.726316L19.3181 3.94737C20.5426 4.38947 21.6383 5.03684 22.6211 5.81053L25.6019 4.43684C25.9725 4.24737 26.4397 4.37368 26.6653 4.73684L29.8878 10.2632C30.1134 10.5947 29.9845 11.0526 29.63 11.2895L26.9392 13.1368C27.1487 14.4 27.1326 15.6474 26.9392 16.8632L29.63 18.7105C29.9845 18.9474 30.1134 19.4053 29.8878 19.7368L26.6653 25.2632C26.4397 25.5947 25.9725 25.7211 25.6019 25.5316L22.6211 24.1737C21.6383 24.9474 20.5426 25.5789 19.3181 26.0526L19.0281 29.2105C19.0281 29.6684 18.6575 30 18.2225 30H11.7775C11.5639 30 11.359 29.9168 11.2079 29.7688C11.0568 29.6207 10.9719 29.4199 10.9719 29.2105L10.6819 26.0526C9.45736 25.5789 8.36173 24.9474 7.37887 24.1737L4.3981 25.5316C4.02751 25.7211 3.56026 25.5947 3.33468 25.2632L0.11222 19.7368C-0.113352 19.4053 0.0155465 18.9474 0.370017 18.7105L3.06077 16.8632C2.86743 15.6474 2.85131 14.4 3.06077 13.1368L0.370017 11.2895C0.0155465 11.0526 -0.113352 10.5947 0.11222 10.2632L3.33468 4.73684C3.56026 4.37368 4.02751 4.24737 4.3981 4.43684L7.37887 5.81053C8.36173 5.03684 9.45736 4.38947 10.6819 3.94737L10.9719 0.726316C10.9719 0.31579 11.3425 0 11.7775 0H18.2225ZM15 9.47368C16.4956 9.47368 17.93 10.0559 18.9876 11.0923C20.0452 12.1287 20.6393 13.5343 20.6393 15C20.6393 16.4657 20.0452 17.8713 18.9876 18.9077C17.93 19.9441 16.4956 20.5263 15 20.5263C13.5044 20.5263 12.07 19.9441 11.0124 18.9077C9.95483 17.8713 9.36069 16.4657 9.36069 15C9.36069 13.5343 9.95483 12.1287 11.0124 11.0923C12.07 10.0559 13.5044 9.47368 15 9.47368ZM15 11.0526C13.9317 11.0526 12.9071 11.4685 12.1517 12.2088C11.3963 12.9491 10.9719 13.9531 10.9719 15C10.9719 16.0469 11.3963 17.0509 12.1517 17.7912C12.9071 18.5315 13.9317 18.9474 15 18.9474C16.0683 18.9474 17.0929 18.5315 17.8483 17.7912C18.6037 17.0509 19.0281 16.0469 19.0281 15C19.0281 13.9531 18.6037 12.9491 17.8483 12.2088C17.0929 11.4685 16.0683 11.0526 15 11.0526Z" fill="#130E2D"/>
</svg>
